<?xml version="1.0" encoding="UTF-8" standalone="no"?>
<svg
   xmlns="http://www.w3.org/2000/svg"
   viewBox="0 0 364.77788 363.3573"
   height="96.13829mm"
   width="96.514145mm"
   xml:space="preserve"
   id="svg2"
   version="1.1"><defs
     id="defs6" /><g
     transform="matrix(1.3333333,0,0,-1.3333333,-44.278132,537.54399)"
     id="g10"><g
       transform="scale(0.1)"
       id="g12"><path
         id="path14"
         style="fill:#211d1d;fill-opacity:1;fill-rule:nonzero;stroke:none"
         d="m 2651.3,2175.39 -451.27,105.55 -119.85,229.05 590.23,517.09 c 175.03,-66.3 291.69,-234.14 291.69,-421.98 0,-193.33 -127.44,-369.11 -310.8,-429.71 z m -339.24,-533.56 c -70.3,0 -139.17,23.59 -195.44,66.83 l 89.21,464.83 409.92,-95.92 c 13.01,-35.39 19.59,-73.15 19.59,-112.46 0,-178.29 -145,-323.28 -323.28,-323.28 z m -300.67,66.82 c -126.09,-185.81 -334.87,-296.5 -559.45,-296.5 -373.38,0 -677.135,303.75 -677.135,677.06 0,45.83 4.472,91.11 13.218,134.76 l 589.007,532.34 601.01,-273.93 133.07,-254.27 z M 437.879,2732.54 c 0,193.26 127.441,368.97 310.738,429.71 l 450.243,-106.36 105.69,-225.8 -575.589,-520.28 c -174.691,66.5 -291.082,234.55 -291.082,422.73 z m 650.041,963.29 c 71.18,0 140.39,-23.45 196.45,-66.29 l -89.89,-466.45 -410.25,96.87 c -13.011,35.38 -19.585,73.14 -19.585,112.52 0,178.29 144.996,323.35 323.275,323.35 z m 303.36,-67.18 c 126.29,183.91 334.06,293.59 556.81,293.59 372.36,0 675.24,-302.94 675.24,-675.3 0,-45.55 -4.28,-89.07 -13.02,-132.73 l -603.99,-529.22 -598.63,272.92 -116.87,249.52 z M 3067.92,2603.82 c 0,229.29 -142.17,429.75 -356.12,507.75 9.41,48.33 14.32,96.67 14.32,147 0,426.23 -346.78,773.01 -773.07,773.01 -249,0 -480.65,-119.42 -626.21,-320.64 -71.56,55.52 -159.45,85.95 -251.14,85.95 -226.251,0 -410.321,-184.07 -410.321,-410.32 0,-50 8.918,-97.85 25.652,-143 -212.699,-76.75 -358.945,-281.91 -358.945,-509.76 0,-230.47 142.855,-431.82 357.769,-509.27 -9.128,-47.78 -14.105,-97.08 -14.105,-146.94 0,-425.26 345.95,-771.2 771.21,-771.2 249.62,0 481.12,119.9 625.85,321.95 72.05,-56.56 160.15,-87.61 251.49,-87.61 226.25,0 410.32,184 410.32,410.25 0,50 -8.92,97.92 -25.65,143.07 212.7,76.68 358.95,281.92 358.95,509.76" /></g></g></svg>
